<svg xmlns="http://www.w3.org/2000/svg" width="60" height="50" viewBox="0 0 60 50">
  <g id="filter" transform="translate(-325 -2031)">
    <g id="Group_855" data-name="Group 855" transform="translate(137 360)">
      <path id="Path_1605" data-name="Path 1605" d="M3,0H57a3,3,0,0,1,3,3V47a3,3,0,0,1-3,3H3a3,3,0,0,1-3-3V3A3,3,0,0,1,3,0Z" transform="translate(188 1671)" fill="#70cbf4"/>
      <g id="filter-filled-tool-symbol" transform="translate(196.784 1185.207)">
        <path id="Path_1604" data-name="Path 1604" d="M13.336,11.207a1.464,1.464,0,0,1,.386.991V22.983a.733.733,0,0,0,1.247.522l3.009-3.448c.4-.483.625-.722.625-1.2V12.2a1.476,1.476,0,0,1,.386-.991L27.62,1.842A1.1,1.1,0,0,0,26.812,0H5.51A1.1,1.1,0,0,0,4.7,1.842Z" transform="translate(0 499.998)" fill="none"/>
      </g>
    </g>
    <g id="Glyph" transform="translate(338 2044)">
      <path id="Path_1606" data-name="Path 1606" d="M17,5a3,3,0,1,1,3,3,3,3,0,0,1-3-3ZM2,6H14a1,1,0,0,0,0-2H2A1,1,0,0,0,2,6ZM8,9a3,3,0,0,0-2.82,2H2a1,1,0,0,0,0,2H5.18A3,3,0,1,0,8,9Zm14,2H14a1,1,0,0,0,0,2h8a1,1,0,0,0,0-2ZM10,18H2a1,1,0,0,0,0,2h8a1,1,0,0,0,0-2Zm12,0H18.82a3,3,0,1,0,0,2H22a1,1,0,0,0,0-2Z" fill="#fff"/>
    </g>
  </g>
</svg>
