<svg id="land" xmlns="http://www.w3.org/2000/svg" width="51.715" height="51.714" viewBox="0 0 51.715 51.714">
  <g id="Group_869" data-name="Group 869" transform="translate(36.463 0)">
    <g id="Group_868" data-name="Group 868" transform="translate(0 0)">
      <path id="Path_1620" data-name="Path 1620" d="M368.573,0A7.671,7.671,0,0,0,361,7.678a7.584,7.584,0,0,0,7.576,7.575,7.671,7.671,0,0,0,7.676-7.575A7.758,7.758,0,0,0,368.573,0Z" transform="translate(-360.998 -0.002)" fill="#092a5e"/>
    </g>
  </g>
  <g id="Group_871" data-name="Group 871" transform="translate(9.925 21.371)">
    <g id="Group_870" data-name="Group 870">
      <path id="Path_1621" data-name="Path 1621" d="M106.429,212.3a1.576,1.576,0,0,0-2.648,0l-5.518,9.932,3.812,3.812,1.959-1.959a1.515,1.515,0,0,1,2.142,0l1.959,1.959,3.812-3.812Z" transform="translate(-98.263 -211.58)" fill="#092a5e"/>
    </g>
  </g>
  <g id="Group_873" data-name="Group 873" transform="translate(0 34.778)">
    <g id="Group_872" data-name="Group 872">
      <path id="Path_1622" data-name="Path 1622" d="M25.14,344.317l-4.272,4.271a1.515,1.515,0,0,1-2.142,0l-1.959-1.959-1.959,1.959a1.515,1.515,0,0,1-2.142,0l-4.271-4.271L.191,359a1.514,1.514,0,0,0,1.324,2.25H34.494Z" transform="translate(0 -344.317)" fill="#092a5e"/>
    </g>
  </g>
  <g id="Group_875" data-name="Group 875" transform="translate(21.9 12.274)">
    <g id="Group_874" data-name="Group 874">
      <path id="Path_1623" data-name="Path 1623" d="M225.114,122.22a1.576,1.576,0,0,0-2.619,0l-5.678,9.734,2.856,5.139,3.061-3.061a1.515,1.515,0,0,1,2.142,0l1.959,1.959,3.987-3.987Z" transform="translate(-216.817 -121.521)" fill="#092a5e"/>
    </g>
  </g>
  <g id="Group_877" data-name="Group 877" transform="translate(26.286 25.464)">
    <g id="Group_876" data-name="Group 876">
      <path id="Path_1624" data-name="Path 1624" d="M285.462,276.081l-14.026-23.972-4.494,4.494a1.514,1.514,0,0,1-2.142,0l-1.959-1.959-2.6,2.6,11.673,21.113h12.24a1.516,1.516,0,0,0,1.31-2.279Z" transform="translate(-260.239 -252.109)" fill="#092a5e"/>
    </g>
  </g>
</svg>
