<svg id="luft" xmlns="http://www.w3.org/2000/svg" width="37.496" height="54.61" viewBox="0 0 37.496 54.61">
  <g id="Group_861" data-name="Group 861" transform="translate(13.389 0)">
    <g id="Group_860" data-name="Group 860">
      <path id="Path_1616" data-name="Path 1616" d="M215.14,8.082,213.012.119l.1-.026A21.179,21.179,0,0,0,209.2.086l-2.13,8.025a39.161,39.161,0,0,0,.636,22.287l2.734,8.348H211.8l2.723-8.313A39.159,39.159,0,0,0,215.14,8.082Z" transform="translate(-205.755 0.001)" fill="#092a5e"/>
    </g>
  </g>
  <g id="Group_863" data-name="Group 863" transform="translate(22.142 0.522)">
    <g id="Group_862" data-name="Group 862">
      <path id="Path_1617" data-name="Path 1617" d="M303.021,18.443A14.751,14.751,0,0,0,297.157,8.6,21.484,21.484,0,0,0,289.1,4.89l1.843,6.9a41.727,41.727,0,0,1-.66,23.817l-2.46,7.512H289.8l10.333-13.582A14.75,14.75,0,0,0,303.021,18.443Z" transform="translate(-287.818 -4.89)" fill="#092a5e"/>
    </g>
  </g>
  <g id="Group_865" data-name="Group 865" transform="translate(12.569 41.323)">
    <g id="Group_864" data-name="Group 864" transform="translate(0)">
      <path id="Path_1618" data-name="Path 1618" d="M209.626,391.354l.473-3.927h-2.6l-.421,3.494h-1.594a1.289,1.289,0,0,0,.047-.339V389.44a1.288,1.288,0,0,0-2.576,0v1.142a1.28,1.28,0,0,0,.046.339h-1.594l-.421-3.494h-2.6l.473,3.927a2.056,2.056,0,0,0-.8,1.628v5.67a2.062,2.062,0,0,0,2.062,2.062h8.235a2.062,2.062,0,0,0,2.061-2.062v-5.67A2.057,2.057,0,0,0,209.626,391.354Z" transform="translate(-198.068 -387.426)" fill="#092a5e"/>
    </g>
  </g>
  <g id="Group_867" data-name="Group 867" transform="translate(0 0.527)">
    <g id="Group_866" data-name="Group 866" transform="translate(0)">
      <path id="Path_1619" data-name="Path 1619" d="M93.119,35.613a41.735,41.735,0,0,1-.678-23.75L94.278,4.94a21.484,21.484,0,0,0-8.038,3.7,14.857,14.857,0,0,0-2.98,20.933L93.594,43.159h2Z" transform="translate(-80.225 -4.94)" fill="#092a5e"/>
    </g>
  </g>
</svg>
