<svg id="category-2" xmlns="http://www.w3.org/2000/svg" width="48.356" height="68" viewBox="0 0 48.356 68">
  <g id="location">
    <path id="Path_92" data-name="Path 92" d="M28,39a24.178,24.178,0,0,1,48.356,0c0,13.254-24.178,44-24.178,44S28,52.254,28,39Z" transform="translate(-28 -15)" fill-rule="evenodd"/>
  </g>
  <g id="hot-air-balloon_2" data-name="hot-air-balloon 2" transform="translate(14.238 11.531)">
    <g id="Group_861" data-name="Group 861" transform="translate(7.099 0)">
      <g id="Group_860" data-name="Group 860">
        <path id="Path_1616" data-name="Path 1616" d="M210.731,4.285,209.6.063l.051-.014a11.229,11.229,0,0,0-2.071,0L206.454,4.3a20.763,20.763,0,0,0,.337,11.816l1.45,4.426h.718l1.444-4.408A20.762,20.762,0,0,0,210.731,4.285Z" transform="translate(-205.755 0.001)" fill="#fff"/>
      </g>
    </g>
    <g id="Group_863" data-name="Group 863" transform="translate(11.739 0.277)">
      <g id="Group_862" data-name="Group 862">
        <path id="Path_1617" data-name="Path 1617" d="M295.878,12.076a7.821,7.821,0,0,0-3.109-5.219A11.39,11.39,0,0,0,288.5,4.89l.977,3.656a22.123,22.123,0,0,1-.35,12.627l-1.3,3.983h1.053l5.478-7.2A7.82,7.82,0,0,0,295.878,12.076Z" transform="translate(-287.818 -4.89)" fill="#fff"/>
      </g>
    </g>
    <g id="Group_865" data-name="Group 865" transform="translate(6.664 21.909)">
      <g id="Group_864" data-name="Group 864" transform="translate(0)">
        <path id="Path_1618" data-name="Path 1618" d="M204.2,389.508l.251-2.082h-1.376l-.223,1.852H202a.684.684,0,0,0,.025-.18v-.605a.683.683,0,0,0-1.366,0v.605a.678.678,0,0,0,.025.18h-.845l-.223-1.852h-1.376l.251,2.082a1.09,1.09,0,0,0-.424.863v3.006a1.093,1.093,0,0,0,1.093,1.093h4.366a1.093,1.093,0,0,0,1.093-1.093v-3.006A1.091,1.091,0,0,0,204.2,389.508Z" transform="translate(-198.068 -387.426)" fill="#fff"/>
      </g>
    </g>
    <g id="Group_867" data-name="Group 867" transform="translate(0 0.279)">
      <g id="Group_866" data-name="Group 866" transform="translate(0)">
        <path id="Path_1619" data-name="Path 1619" d="M87.061,21.2A22.128,22.128,0,0,1,86.7,8.611l.974-3.671A11.39,11.39,0,0,0,83.414,6.9,7.877,7.877,0,0,0,81.835,18l5.478,7.2h1.059Z" transform="translate(-80.225 -4.94)" fill="#fff"/>
      </g>
    </g>
  </g>
</svg>
