<svg xmlns="http://www.w3.org/2000/svg" width="51.357" height="43.009" viewBox="0 0 51.357 43.009">
  <g id="wasser" transform="translate(-667.255 -1245)">
    <path id="Path_1625" data-name="Path 1625" d="M14.7,35.447c4.279.025,4.788-2.352,8.683-3.043a10.293,10.293,0,0,1-.59-12.126,11.977,11.977,0,0,1,9.53-4.85c1.709-.231,6.109.69,4.641-2.492C27.833,2.777,7.447,21.415,5,24.025V32.28c4.717.345,4.975,3.16,9.7,3.167Z" transform="translate(662.255 1235.07)" fill="#092a5e"/>
    <path id="Path_1626" data-name="Path 1626" d="M28.971,22.5A7.887,7.887,0,0,1,30.8,18.07a9.7,9.7,0,0,0-5.526,3.709c-1.569,2.2-2.444,6.867,1.417,10.88a9.92,9.92,0,0,1,5.4,1.721,8.77,8.77,0,0,0,9.672,0,10.74,10.74,0,0,1,11.631,0A8.087,8.087,0,0,0,57.237,35.8l-.019-5.925L38.6,30.234c-4.5.118-9.772-3.139-9.625-7.732Z" transform="translate(661.328 1234.672)" fill="#092a5e"/>
    <path id="Path_1628" data-name="Path 1628" d="M14.7,45.434a8.076,8.076,0,0,0,4.831-1.455,10.675,10.675,0,0,1,11.631,0,8.812,8.812,0,0,0,9.672,0,10.691,10.691,0,0,1,11.631,0A8.265,8.265,0,0,0,56.329,45.4l-.019-6.838a10.075,10.075,0,0,1-4.822-1.693,8.764,8.764,0,0,0-9.672,0,10.73,10.73,0,0,1-11.631,0,8.774,8.774,0,0,0-9.672,0A10.016,10.016,0,0,1,14.7,38.6c-5.036.062-5.427-2.646-9.7-3.158v6.829c4.714.349,4.97,3.163,9.7,3.167Z" transform="translate(662.255 1233.823)" fill="#092a5e"/>
    <path id="Path_1629" data-name="Path 1629" d="M51.488,46.055a8.772,8.772,0,0,0-9.672,0A10.051,10.051,0,0,1,36,47.785c-5.494.047-5.536-3.128-10.642-3.2a8.107,8.107,0,0,0-4.841,1.465,10.728,10.728,0,0,1-11.631,0A8.267,8.267,0,0,0,5,44.628v6.848c4.7.33,4.989,3.153,9.7,3.158,5.115-.058,5.147-3.244,10.652-3.2,5.493-.047,5.532,3.139,10.642,3.2a8.064,8.064,0,0,0,4.841-1.465,10.744,10.744,0,0,1,11.641,0,8.089,8.089,0,0,0,3.88,1.426l-.019-6.848a10.022,10.022,0,0,1-4.85-1.693Z" transform="translate(662.255 1233.374)" fill="#092a5e"/>
  </g>
</svg>
